<?xml version="1.0" encoding="utf-8"?>
<!-- Generator: Adobe Illustrator 27.5.0, SVG Export Plug-In . SVG Version: 6.00 Build 0)  -->
<svg version="1.1" xmlns="http://www.w3.org/2000/svg" xmlns:xlink="http://www.w3.org/1999/xlink" x="0px" y="0px"
	 viewBox="0 0 500 500" style="enable-background:new 0 0 500 500;" xml:space="preserve">
<g id="OBJECTS">
	<g>
		<linearGradient id="SVGID_1_" gradientUnits="userSpaceOnUse" x1="250" y1="359.0486" x2="250" y2="73.6488">
			<stop  offset="0" style="stop-color:#59ACF9"/>
			<stop  offset="0.9916" style="stop-color:#C9EDFF"/>
		</linearGradient>
		<path style="fill:url(#SVGID_1_);" d="M358.858,167.215c-0.378-61.2-51.187-110.292-112.78-108.117
			c-55.888,1.973-101.827,47.02-104.781,102.865c-1.561,29.505,8.64,56.561,26.282,76.999l0,0l63.336,91.982
			c9.727,14.126,30.634,13.997,40.185-0.248l62.194-92.757l0,0C349.377,218.833,359.024,194.145,358.858,167.215z"/>
		
			<linearGradient id="SVGID_00000128484263442149354870000010085506033201281926_" gradientUnits="userSpaceOnUse" x1="249.9652" y1="277.2986" x2="249.9652" y2="112.8416">
			<stop  offset="0" style="stop-color:#FFA538"/>
			<stop  offset="0.0717" style="stop-color:#FEAB39"/>
			<stop  offset="0.4427" style="stop-color:#FAC83D"/>
			<stop  offset="0.7649" style="stop-color:#F8DA40"/>
			<stop  offset="1" style="stop-color:#F7E041"/>
		</linearGradient>
		<circle style="fill:url(#SVGID_00000128484263442149354870000010085506033201281926_);" cx="249.965" cy="162.257" r="67.21"/>
		<g>
			<path style="fill:#00395E;" d="M292.223,139.115l1.082-2.774c0.899-2.305-0.547-4.853-2.986-5.264l-2.936-0.494
				c-2.676-0.451-5.425-0.025-7.839,1.215l-15.883,8.153c-18.453,9.473-35.331,21.741-50.036,36.371l0,0
				c-1.132,1.126-0.054,3.027,1.494,2.633l0,0c20.102-5.115,39.293-13.307,56.892-24.285l15.147-9.449
				C289.461,143.785,291.237,141.643,292.223,139.115z"/>
			<g>
				<path style="fill:#00395E;" d="M270.416,140.57l-46.656-14.814c-3.507-1.114-6.185,3.186-3.639,5.843l23.282,24.295
					L270.416,140.57z"/>
				<path style="fill:#00395E;" d="M274.945,148.555l-11.224,47.647c-0.844,3.582-5.908,3.674-6.882,0.126l-8.907-32.449
					L274.945,148.555z"/>
			</g>
			<g>
				<path style="fill:#00395E;" d="M225.03,169.672l-16.983-5.392c-1.277-0.405-2.251,1.16-1.325,2.127l8.475,8.843L225.03,169.672z
					"/>
				<path style="fill:#00395E;" d="M226.678,172.578l-4.086,17.344c-0.307,1.304-2.151,1.337-2.505,0.046l-3.242-11.811
					L226.678,172.578z"/>
			</g>
		</g>
		
			<linearGradient id="SVGID_00000036939616522715874800000015463019563823767182_" gradientUnits="userSpaceOnUse" x1="282.4721" y1="310.2986" x2="282.4721" y2="202.2053">
			<stop  offset="0" style="stop-color:#1A4C4E"/>
			<stop  offset="1" style="stop-color:#2F878A"/>
		</linearGradient>
		<path style="fill:url(#SVGID_00000036939616522715874800000015463019563823767182_);" d="M238.553,309.04l36.45,15.834
			l58.291-86.936c3.067-3.643,5.898-7.49,8.473-11.516l-2.516-1.963c-3.9-3.042-9.496-2.513-12.757,1.206l-18.191,20.749
			l-9.981-7.677c-4.098-3.152-9.866-2.913-13.689,0.567l-20.579,18.735l-8.899-7.362c-3.027-2.504-7.371-2.62-10.527-0.281
			l-21.449,15.893L238.553,309.04z"/>
		
			<linearGradient id="SVGID_00000132770895577218324580000006677399516498824593_" gradientUnits="userSpaceOnUse" x1="227.8116" y1="364.2986" x2="227.8116" y2="250.1778">
			<stop  offset="0" style="stop-color:#236568"/>
			<stop  offset="1" style="stop-color:#2F878A"/>
		</linearGradient>
		<path style="fill:url(#SVGID_00000132770895577218324580000006677399516498824593_);" d="M257.729,275.341l-13.518,7.805
			l-16.008-27.726c-2.269-3.93-6.992-5.718-11.295-4.275l-13.264,4.448l-15.221-26.364c-2.947-5.105-9.804-6.286-14.289-2.46
			l-9.749,8.315c1.036,1.317,2.1,2.61,3.194,3.878l63.336,91.982c9.727,14.126,30.634,13.997,40.185-0.248l20.14-30.037
			l-18.704-22.647C268.913,273.626,262.654,272.497,257.729,275.341z"/>
		<path style="fill:#FFFFFF;" d="M213.236,154.115c0.027-0.336,0.051-0.673,0.051-1.016c0-6.798-5.51-12.308-12.308-12.308
			c-2.516,0-4.853,0.758-6.803,2.054c-2.596-4.626-7.54-7.756-13.222-7.756c-7.133,0-13.1,4.934-14.714,11.57
			c-1.293-0.623-2.737-0.982-4.268-0.982c-4.962,0-9.057,3.668-9.75,8.438H213.236z"/>
		<path style="fill:#FFFFFF;" d="M274.997,208.452c-0.027-0.336-0.051-0.673-0.051-1.017c0-6.797,5.51-12.308,12.308-12.308
			c2.516,0,4.853,0.758,6.803,2.054c2.596-4.626,7.54-7.756,13.221-7.756c7.133,0,13.1,4.934,14.714,11.57
			c1.293-0.623,2.737-0.982,4.268-0.982c4.962,0,9.057,3.668,9.75,8.438H274.997z"/>
		<circle style="fill:#FFFFFF;" cx="321.693" cy="118.305" r="2.516"/>
		<path style="fill:#FFFFFF;" d="M164.384,173.747c0-1.389-1.126-2.516-2.516-2.516c-1.389,0-2.516,1.126-2.516,2.516
			c0,1.389,1.126,2.516,2.516,2.516C163.258,176.262,164.384,175.136,164.384,173.747z"/>
		<path style="fill:#FFFFFF;" d="M215.616,241.165c0-1.392-1.128-2.52-2.52-2.52c-1.392,0-2.52,1.128-2.52,2.52
			s1.128,2.521,2.52,2.521C214.488,243.685,215.616,242.557,215.616,241.165z"/>
		<path style="fill:#FFFFFF;" d="M250.452,302.29c0-1.392-1.128-2.521-2.52-2.521c-1.392,0-2.52,1.129-2.52,2.521
			s1.128,2.521,2.52,2.521C249.324,304.81,250.452,303.682,250.452,302.29z"/>
		<circle style="fill:#FFFFFF;" cx="341.767" cy="164.214" r="3.75"/>
		<circle style="fill:#FFFFFF;" cx="202.606" cy="91.298" r="3.75"/>
		<circle style="fill:#FFFFFF;" cx="293.574" cy="261.79" r="3.75"/>
		<path style="fill:#00395E;" d="M213.096,178.164c0,0-71.443,38.967-90.055,29.647c-18.612-9.319,16.77-28.797,16.77-28.797
			s-53.523,22.315-32.373,42.308C131.28,243.861,213.096,178.164,213.096,178.164z"/>
	</g>
</g>
</svg>
