<svg version="1.2" xmlns="http://www.w3.org/2000/svg" viewBox="0 0 257 283" width="257" height="283">
	<title>logo-svg</title>
	<defs>
		<linearGradient id="g1" x2="1" gradientUnits="userSpaceOnUse" gradientTransform="matrix(0,-285.4,220.008,0,148,300.049)">
			<stop offset="0" stop-color="#59acf9"/>
			<stop offset=".992" stop-color="#c9edff"/>
		</linearGradient>
		<linearGradient id="g2" x2="1" gradientUnits="userSpaceOnUse" gradientTransform="matrix(0,-164.457,164.457,0,147.965,218.299)">
			<stop offset="0" stop-color="#ffa538"/>
			<stop offset=".072" stop-color="#feab39"/>
			<stop offset=".443" stop-color="#fac83d"/>
			<stop offset=".765" stop-color="#f8da40"/>
			<stop offset="1" stop-color="#f7e041"/>
		</linearGradient>
		<linearGradient id="g3" x2="1" gradientUnits="userSpaceOnUse" gradientTransform="matrix(0,-108.093,125.195,0,180.472,251.299)">
			<stop offset="0" stop-color="#1a4c4e"/>
			<stop offset="1" stop-color="#2f878a"/>
		</linearGradient>
		<linearGradient id="g4" x2="1" gradientUnits="userSpaceOnUse" gradientTransform="matrix(0,-114.121,123.794,0,125.812,305.299)">
			<stop offset="0" stop-color="#236568"/>
			<stop offset="1" stop-color="#2f878a"/>
		</linearGradient>
	</defs>
	<style>
		.s0 { fill: url(#g1) } 
		.s1 { fill: url(#g2) } 
		.s2 { fill: #00395e } 
		.s3 { fill: url(#g3) } 
		.s4 { fill: url(#g4) } 
		.s5 { fill: #ffffff } 
	</style>
	<path id="Layer" class="s0" d="m256.9 108.2c-0.4-61.2-51.2-110.3-112.8-108.1-55.9 2-101.8 47-104.8 102.9-1.6 29.5 8.6 56.5 26.3 77l63.3 91.9c9.7 14.2 30.6 14 40.2-0.2l62.2-92.8c16.1-19.1 25.7-43.8 25.6-70.7z"/>
	<path id="Layer" class="s1" d="m148 170.5c-37.2 0-67.2-30.1-67.2-67.2 0-37.2 30-67.3 67.2-67.3 37.1 0 67.2 30.1 67.2 67.3 0 37.1-30.1 67.2-67.2 67.2z"/>
	<g id="Layer">
		<path id="Layer" class="s2" d="m190.2 80.1l1.1-2.8c0.9-2.3-0.5-4.8-3-5.2l-2.9-0.5c-2.7-0.5-5.4 0-7.9 1.2l-15.8 8.2c-18.5 9.4-35.4 21.7-50.1 36.3-1.1 1.1 0 3 1.5 2.7 20.1-5.2 39.3-13.4 56.9-24.3l15.2-9.5c2.3-1.4 4-3.6 5-6.1z"/>
		<g id="Layer">
			<path id="Layer" class="s2" d="m168.4 81.6l-46.6-14.8c-3.5-1.2-6.2 3.1-3.7 5.8l23.3 24.3z"/>
			<path id="Layer" class="s2" d="m172.9 89.6l-11.2 47.6c-0.8 3.6-5.9 3.7-6.9 0.1l-8.9-32.4z"/>
		</g>
		<g id="Layer">
			<path id="Layer" class="s2" d="m123 110.7l-17-5.4c-1.2-0.4-2.2 1.1-1.3 2.1l8.5 8.8z"/>
			<path id="Layer" class="s2" d="m124.7 113.6l-4.1 17.3c-0.3 1.3-2.2 1.4-2.5 0.1l-3.3-11.8z"/>
		</g>
	</g>
	<path id="Layer" class="s3" d="m136.6 250l36.4 15.9 58.3-87q4.6-5.4 8.5-11.5l-2.5-1.9c-3.9-3.1-9.5-2.6-12.8 1.2l-18.2 20.7-10-7.7c-4.1-3.1-9.8-2.9-13.7 0.6l-20.5 18.7-8.9-7.3c-3.1-2.5-7.4-2.6-10.6-0.3l-21.4 15.9z"/>
	<path id="Layer" class="s4" d="m155.7 216.3l-13.5 7.8-16-27.7c-2.3-3.9-7-5.7-11.3-4.3l-13.3 4.5-15.2-26.4c-2.9-5.1-9.8-6.3-14.3-2.4l-9.7 8.3q1.5 2 3.2 3.9l63.3 91.9c9.7 14.2 30.6 14 40.2-0.2l20.1-30-18.7-22.7c-3.6-4.4-9.8-5.5-14.8-2.7z"/>
	<path id="Layer" class="s5" d="m111.2 95.1q0.1-0.5 0.1-1c0-6.8-5.5-12.3-12.3-12.3-2.5 0-4.9 0.7-6.8 2-2.6-4.6-7.6-7.7-13.2-7.7-7.2 0-13.1 4.9-14.8 11.6-1.3-0.7-2.7-1-4.2-1-5 0-9.1 3.6-9.8 8.4z"/>
	<path id="Layer" class="s5" d="m173 149.5q0-0.6-0.1-1.1c0-6.8 5.6-12.3 12.4-12.3 2.5 0 4.8 0.8 6.8 2.1 2.6-4.6 7.5-7.8 13.2-7.8 7.1 0 13.1 5 14.7 11.6 1.3-0.6 2.7-1 4.3-1 4.9 0 9 3.7 9.7 8.5 0 0-61 0-61 0z"/>
	<path id="Layer" class="s5" d="m219.7 61.8c-1.4 0-2.5-1.1-2.5-2.5 0-1.4 1.1-2.5 2.5-2.5 1.4 0 2.5 1.1 2.5 2.5 0 1.4-1.1 2.5-2.5 2.5z"/>
	<path id="Layer" class="s5" d="m62.4 114.7c0-1.3-1.1-2.5-2.5-2.5-1.4 0-2.5 1.2-2.5 2.5 0 1.4 1.1 2.6 2.5 2.6 1.4 0 2.5-1.2 2.5-2.6z"/>
	<path id="Layer" class="s5" d="m113.6 182.2c0-1.4-1.1-2.6-2.5-2.6-1.4 0-2.5 1.2-2.5 2.6 0 1.4 1.1 2.5 2.5 2.5 1.4 0 2.5-1.1 2.5-2.5z"/>
	<path id="Layer" class="s5" d="m148.5 243.3c0-1.4-1.2-2.5-2.6-2.5-1.4 0-2.5 1.1-2.5 2.5 0 1.4 1.1 2.5 2.5 2.5 1.4 0 2.6-1.1 2.6-2.5z"/>
	<path id="Layer" class="s5" d="m239.8 109c-2.1 0-3.8-1.7-3.8-3.8 0-2.1 1.7-3.7 3.8-3.7 2 0 3.7 1.6 3.7 3.7 0 2.1-1.7 3.8-3.7 3.8z"/>
	<path id="Layer" class="s5" d="m100.6 36c-2.1 0-3.7-1.6-3.7-3.7 0-2.1 1.6-3.8 3.7-3.8 2.1 0 3.8 1.7 3.8 3.8 0 2.1-1.7 3.7-3.8 3.7z"/>
	<path id="Layer" class="s5" d="m191.6 206.5c-2.1 0-3.8-1.6-3.8-3.7 0-2.1 1.7-3.8 3.8-3.8 2 0 3.7 1.7 3.7 3.8 0 2.1-1.7 3.7-3.7 3.7z"/>
	<path id="Layer" class="s2" d="m111.1 119.2c0 0-71.4 38.9-90.1 29.6-18.6-9.3 16.8-28.8 16.8-28.8 0 0-53.5 22.3-32.4 42.3 23.9 22.6 105.7-43.1 105.7-43.1z"/>
</svg>